<?xml version="1.0" encoding="UTF-8"?>
<svg version="1.1" xmlns="http://www.w3.org/2000/svg" width="1280" height="1280">
<path d="M0 0 C0.51981445 0.42958008 1.03962891 0.85916016 1.57519531 1.30175781 C7.44457179 6.16281425 13.23654642 11.02855438 18.52734375 16.52734375 C20.18614742 18.23665912 20.18614742 18.23665912 23 20.4375 C25.96864111 22.97321428 28.36851428 25.61129665 30.890625 28.57421875 C33.48217453 31.55450071 36.17828877 34.42765594 38.875 37.3125 C43.36869475 42.13844318 47.59374901 47.10957155 51.72265625 52.25390625 C54.21826547 55.26319147 56.83766805 58.13937022 59.5 61 C63.78960407 65.60998943 67.80411122 70.37783516 71.75390625 75.28515625 C74.0883059 78.10673495 76.51990598 80.80590712 79 83.5 C83.09351091 87.94727112 86.92442499 92.54717463 90.71875 97.25 C93.06718968 100.08099578 95.50909902 102.79383598 98 105.5 C102.09351091 109.94727112 105.92442499 114.54717463 109.71875 119.25 C112.06718968 122.08099578 114.50909902 124.79383598 117 127.5 C121.09351091 131.94727112 124.92442499 136.54717463 128.71875 141.25 C131.86194258 145.03905407 135.20158595 148.63269352 138.53515625 152.25390625 C140.92707297 154.91875166 143.19254884 157.64831825 145.4375 160.4375 C148.65943101 164.43223986 152.00655495 168.24554349 155.5 172 C159.78955113 176.61004336 163.80410672 181.37782956 167.75390625 186.28515625 C170.0883059 189.10673495 172.51990598 191.80590712 175 194.5 C178.27418423 198.05670244 181.40642433 201.67161811 184.4375 205.4375 C187.65943101 209.43223986 191.00655495 213.24554349 194.5 217 C198.78955113 221.61004336 202.80410672 226.37782956 206.75390625 231.28515625 C209.0883059 234.10673495 211.51990598 236.80590712 214 239.5 C217.27418423 243.05670244 220.40642433 246.67161811 223.4375 250.4375 C226.65943101 254.43223986 230.00655495 258.24554349 233.5 262 C237.78955113 266.61004336 241.80410672 271.37782956 245.75390625 276.28515625 C248.0883059 279.10673495 250.51990598 281.80590712 253 284.5 C256.27418423 288.05670244 259.40642433 291.67161811 262.4375 295.4375 C265.65943101 299.43223986 269.00655495 303.24554349 272.5 307 C276.78955113 311.61004336 280.80410672 316.37782956 284.75390625 321.28515625 C287.88637767 325.07136083 291.22248406 328.65580581 294.55078125 332.26953125 C296.86060582 334.84459883 299.03243013 337.48254363 301.1875 340.1875 C323.51059797 367.77473278 350.77234477 388.60128769 385 399 C386.75376953 399.56460938 386.75376953 399.56460938 388.54296875 400.140625 C429.57807025 412.34640436 474.6978142 406.24589849 512.06835938 386.07958984 C521.31963424 380.90907196 529.96870695 374.92178946 538 368 C538.95519531 367.17886719 539.91039062 366.35773438 540.89453125 365.51171875 C570.94964897 339.11641349 590.01315901 300.10710321 592.87109375 260.19677734 C595.47419727 215.83555483 580.89989649 174.05113777 551.54492188 140.81835938 C537.02949896 124.84948173 519.60309563 112.88379989 500 104 C499.38688965 103.72172363 498.7737793 103.44344727 498.14208984 103.15673828 C484.20317615 96.95292953 469.13300124 92.91106917 454 91 C453.17371094 90.88914062 452.34742188 90.77828125 451.49609375 90.6640625 C411.83976201 86.18380517 370.31380155 96.44137767 338 120 C337.18499023 120.59288818 337.18499023 120.59288818 336.35351562 121.19775391 C323.8177542 130.41375411 312.85586836 141.08032983 303.20703125 153.2890625 C300.75238009 156.30415614 298.14960754 159.15775169 295.5 162 C291.20998352 166.60958044 287.19585713 171.37787448 283.24609375 176.28515625 C280.11832821 180.06567286 276.78726117 183.64480875 273.46484375 187.25390625 C271.07292703 189.91875166 268.80745116 192.64831825 266.5625 195.4375 C262.40737649 200.59074036 257.99627519 205.43833162 253.48046875 210.2734375 C250.97129494 212.95748749 250.97129494 212.95748749 248.80078125 215.8515625 C247.90939453 216.91503906 247.90939453 216.91503906 247 218 C246.34 218 245.68 218 245 218 C243.62787699 216.46804728 242.3284554 214.87078919 241.0625 213.25 C237.67925672 209.01415769 234.19903909 204.96140526 230.5 201 C226.20958029 196.3908082 222.19582964 191.62209137 218.24609375 186.71484375 C215.9116941 183.89326505 213.48009402 181.19409288 211 178.5 C206.90648909 174.05272888 203.07557501 169.45282537 199.28125 164.75 C196.13805742 160.96094593 192.79841405 157.36730648 189.46484375 153.74609375 C187.07292703 151.08124834 184.80745116 148.35168175 182.5625 145.5625 C179.34056899 141.56776014 175.99344505 137.75445651 172.5 134 C168.21169036 129.39129089 164.19783944 124.62535045 160.25 119.71875 C157.89524929 116.87342622 155.4399162 114.1535371 152.9375 111.4375 C148.37235402 106.47942283 144.13265833 101.32166338 140 96 C141.70788157 91.84790469 144.64423379 88.71241975 147.5625 85.375 C148.10044189 84.75326904 148.63838379 84.13153809 149.19262695 83.4909668 C153.02276719 79.07813995 156.93384574 74.7424642 160.86328125 70.41796875 C163.10969731 67.87586356 165.24621053 65.26620605 167.375 62.625 C171.39726028 57.64973032 175.64756485 52.966783 180.03125 48.3125 C182.50597349 45.62742067 184.76443315 42.80116119 187.0390625 39.9453125 C192.05683628 33.77489156 197.54168003 28.15512422 203.18310547 22.55615234 C204.87313242 20.87685572 206.55217764 19.18711031 208.23046875 17.49609375 C214.83112158 10.88649907 221.63156001 4.76051793 229 -1 C229.71816895 -1.57218262 230.43633789 -2.14436523 231.17626953 -2.73388672 C250.32059445 -17.92434139 270.96302526 -30.45947729 292.97998047 -41.02929688 C294.29718025 -41.66226598 295.61148122 -42.30131409 296.92236328 -42.94726562 C320.74636483 -54.62060344 346.99202936 -62.19057245 373 -67 C373.87833496 -67.16435547 374.75666992 -67.32871094 375.66162109 -67.49804688 C458.00090285 -82.44840935 544.61364007 -63.16726174 614 -17 C619.47362762 -13.18108328 624.75494687 -9.12464549 630 -5 C631.39605469 -3.92298828 631.39605469 -3.92298828 632.8203125 -2.82421875 C638.24386354 1.41771224 643.34350341 5.96044696 648.40625 10.625 C650.61413423 12.64667712 652.85240942 14.61456522 655.125 16.5625 C662.32602631 22.83578673 668.82050603 29.73221459 675 37 C675.82242187 37.94488281 676.64484375 38.88976562 677.4921875 39.86328125 C723.30022649 92.78088625 753.68622354 164.70348071 754.23828125 235.04296875 C754.2480751 236.07714432 754.25786896 237.11131989 754.26795959 238.17683411 C754.44027354 261.10402541 754.28085982 283.41308896 750 306 C749.78569336 307.14678223 749.57138672 308.29356445 749.35058594 309.47509766 C743.31059989 340.82236151 732.98170888 370.80506942 718 399 C717.40348633 400.14299561 717.40348633 400.14299561 716.79492188 401.30908203 C677.50551662 476.39383476 608.0695303 531.31932638 527.83203125 556.9296875 C445.9582824 582.20894602 356.72803803 572.46502069 281 533 C275.20086487 529.8772149 269.56093372 526.52776631 264 523 C263.36980957 522.60103516 262.73961914 522.20207031 262.09033203 521.79101562 C235.55756285 504.84388304 210.4054834 484.03765945 190 460 C189.12030975 458.97221259 188.24005352 457.94490947 187.359375 456.91796875 C185.84645362 455.15377855 184.33379986 453.3893673 182.82250977 451.6237793 C176.91320361 444.72184813 170.95636588 437.8613093 165 431 C162.81201001 428.47959136 160.62444706 425.95881365 158.4375 423.4375 C157.90165283 422.81987793 157.36580566 422.20225586 156.8137207 421.56591797 C152.60079881 416.70509927 148.42129243 411.81628267 144.24462891 406.92431641 C141.31737077 403.50609717 138.34190319 400.14116832 135.3125 396.8125 C132.28287132 393.47772886 129.39391908 390.06712361 126.5625 386.5625 C122.70174863 381.788597 118.62562925 377.26611572 114.46875 372.75 C111.27118704 369.18815771 108.28611657 365.47434167 105.28125 361.75 C102.93281032 358.91900422 100.49090098 356.20616402 98 353.5 C93.90648909 349.05272888 90.07557501 344.45282537 86.28125 339.75 C83.13805742 335.96094593 79.79841405 332.36730648 76.46484375 328.74609375 C74.07292703 326.08124834 71.80745116 323.35168175 69.5625 320.5625 C66.34056899 316.56776014 62.99344505 312.75445651 59.5 309 C55.21044887 304.38995664 51.19589328 299.62217044 47.24609375 294.71484375 C44.9116941 291.89326505 42.48009402 289.19409288 40 286.5 C36.72581577 282.94329756 33.59357567 279.32838189 30.5625 275.5625 C27.34056899 271.56776014 23.99344505 267.75445651 20.5 264 C16.21044887 259.38995664 12.19589328 254.62217044 8.24609375 249.71484375 C5.9116941 246.89326505 3.48009402 244.19409288 1 241.5 C-2.27418423 237.94329756 -5.40642433 234.32838189 -8.4375 230.5625 C-11.65943101 226.56776014 -15.00655495 222.75445651 -18.5 219 C-22.78955113 214.38995664 -26.80410672 209.62217044 -30.75390625 204.71484375 C-33.0883059 201.89326505 -35.51990598 199.19409288 -38 196.5 C-41.27418423 192.94329756 -44.40642433 189.32838189 -47.4375 185.5625 C-51.09571015 181.02683557 -54.94742965 176.7429883 -58.91381836 172.48071289 C-61.90427 169.24806025 -64.73779007 165.93303234 -67.5 162.5 C-71.18724179 157.92068358 -75.05899817 153.57333275 -79.05908203 149.26953125 C-81.57052212 146.56720413 -84.00838151 143.82939785 -86.375 141 C-112.48746994 111.18363362 -150.7306454 94.73292861 -189.5625 90.25 C-233.27818644 87.41401401 -276.4596737 99.09318816 -310 128 C-310.95519531 128.82113281 -311.91039062 129.64226562 -312.89453125 130.48828125 C-343.11152833 157.02575382 -361.71604067 195.74457893 -364.85498047 235.75488281 C-367.64738676 278.98546906 -353.45537854 320.64196136 -325.15625 353.3125 C-310.24865487 370.14293733 -292.44197971 382.73603167 -272 392 C-271.38688965 392.27827637 -270.7737793 392.55655273 -270.14208984 392.84326172 C-256.20317615 399.04707047 -241.13300124 403.08893083 -226 405 C-225.17371094 405.11085938 -224.34742188 405.22171875 -223.49609375 405.3359375 C-183.90339235 409.80900606 -142.26051126 399.51977064 -110 376 C-109.18499023 375.40711182 -109.18499023 375.40711182 -108.35351562 374.80224609 C-95.8177542 365.58624589 -84.85586836 354.91967017 -75.20703125 342.7109375 C-72.75238009 339.69584386 -70.14960754 336.84224831 -67.5 334 C-63.20998352 329.39041956 -59.19585713 324.62212552 -55.24609375 319.71484375 C-52.11832821 315.93432714 -48.78726117 312.35519125 -45.46484375 308.74609375 C-43.07292703 306.08124834 -40.80745116 303.35168175 -38.5625 300.5625 C-34.40737649 295.40925964 -29.99627519 290.56166838 -25.48046875 285.7265625 C-22.97129494 283.04251251 -22.97129494 283.04251251 -20.80078125 280.1484375 C-20.20652344 279.43945312 -19.61226563 278.73046875 -19 278 C-18.34 278 -17.68 278 -17 278 C-15.62787699 279.53195272 -14.3284554 281.12921081 -13.0625 282.75 C-9.67925672 286.98584231 -6.19903909 291.03859474 -2.5 295 C1.79041971 299.6091918 5.80417036 304.37790863 9.75390625 309.28515625 C12.0883059 312.10673495 14.51990598 314.80590712 17 317.5 C21.09351091 321.94727112 24.92442499 326.54717463 28.71875 331.25 C31.86194258 335.03905407 35.20158595 338.63269352 38.53515625 342.25390625 C40.92707297 344.91875166 43.19254884 347.64831825 45.4375 350.4375 C48.65943101 354.43223986 52.00655495 358.24554349 55.5 362 C59.78830964 366.60870911 63.80216056 371.37464955 67.75 376.28125 C70.10475071 379.12657378 72.5600838 381.8464629 75.0625 384.5625 C79.62764598 389.52057717 83.86734167 394.67833662 88 400 C86.29211843 404.15209531 83.35576621 407.28758025 80.4375 410.625 C79.89955811 411.24673096 79.36161621 411.86846191 78.80737305 412.5090332 C74.97723281 416.92186005 71.06615426 421.2575358 67.13671875 425.58203125 C64.89030269 428.12413644 62.75378947 430.73379395 60.625 433.375 C56.60273972 438.35026968 52.35243515 443.033217 47.96875 447.6875 C45.49402651 450.37257933 43.23556685 453.19883881 40.9609375 456.0546875 C35.94316372 462.22510844 30.45831997 467.84487578 24.81689453 473.44384766 C23.12686758 475.12314428 21.44782236 476.81288969 19.76953125 478.50390625 C13.15802026 485.12382636 6.37101419 491.2232567 -1 497 C-2.06043279 497.85740925 -3.12043784 498.7153483 -4.1796875 499.57421875 C-18.8389609 511.06793891 -34.4990917 521.35104449 -51 530 C-51.96317139 530.50539307 -51.96317139 530.50539307 -52.94580078 531.02099609 C-56.9254123 533.09142287 -60.93593203 535.08784484 -64.97998047 537.02929688 C-66.29718025 537.66226598 -67.61148122 538.30131409 -68.92236328 538.94726562 C-92.74934596 550.62206414 -118.99065786 558.18313544 -145 563 C-145.87301758 563.16435547 -146.74603516 563.32871094 -147.64550781 563.49804688 C-230.61214758 578.67765195 -317.39550197 558.65377566 -386.75 511.46875 C-411.48326287 494.32201645 -435.83518166 473.04711185 -454 449 C-455.15048828 447.55753906 -455.15048828 447.55753906 -456.32421875 446.0859375 C-508.82089138 380.03334643 -532.04863086 294.07755346 -522.875 210.4375 C-518.16966412 173.18909864 -507.6550277 136.09995036 -489.98876953 102.88037109 C-488.96295556 100.92955154 -487.97741416 98.96182036 -486.99609375 96.98828125 C-478.75792568 80.63708672 -468.33720781 65.35903446 -457 51 C-456.28714844 50.09507812 -455.57429688 49.19015625 -454.83984375 48.2578125 C-440.53894799 30.45105341 -424.24826587 12.78814502 -406 -1 C-404.75380009 -1.98389603 -403.5091356 -2.96973849 -402.265625 -3.95703125 C-353.3065209 -42.52277715 -294.06581008 -65.70398691 -232 -71 C-231.32372559 -71.05784668 -230.64745117 -71.11569336 -229.95068359 -71.17529297 C-147.67896366 -77.83529047 -63.67592861 -52.83747268 0 0 Z " fill="#E4C590" transform="translate(526,392)"/>
</svg>
